<svg xmlns="http://www.w3.org/2000/svg" width="340" height="168" viewBox="0 0 340 168">
  <text x="25" y="28" fill="#7c3aed" font-size="16" font-weight="bold" font-family="'Segoe UI', Ubuntu, 'Helvetica Neue', sans-serif">Top Languages</text>
  <rect x="25" y="42" width="110.49" height="8" fill="#3178c6" rx="0"/><rect x="135.49" y="42" width="78.00999999999999" height="8" fill="#dea584" rx="0"/><rect x="213.5" y="42" width="48.14" height="8" fill="#A97BFF" rx="0"/><rect x="261.64" y="42" width="23.490000000000002" height="8" fill="#00ADD8" rx="0"/><rect x="285.13" y="42" width="19.14" height="8" fill="#fcb32c" rx="0"/><rect x="304.27" y="42" width="6.380000000000001" height="8" fill="#ff5a03" rx="0"/><rect x="310.65" y="42" width="2.9" height="8" fill="#663399" rx="0"/><rect x="313.54999999999995" y="42" width="1.45" height="8" fill="#f1e05a" rx="0"/>
  
    <g transform="translate(25, 70)">
      <circle cx="5" cy="5" r="5" fill="#3178c6"/>
      <text x="16" y="9" fill="#c9d1d9" font-size="12" font-family="'Segoe UI', Ubuntu, 'Helvetica Neue', sans-serif">TypeScript 38.1%</text>
    </g>
    <g transform="translate(175, 70)">
      <circle cx="5" cy="5" r="5" fill="#dea584"/>
      <text x="16" y="9" fill="#c9d1d9" font-size="12" font-family="'Segoe UI', Ubuntu, 'Helvetica Neue', sans-serif">Rust 26.9%</text>
    </g>
    <g transform="translate(25, 92)">
      <circle cx="5" cy="5" r="5" fill="#A97BFF"/>
      <text x="16" y="9" fill="#c9d1d9" font-size="12" font-family="'Segoe UI', Ubuntu, 'Helvetica Neue', sans-serif">Kotlin 16.6%</text>
    </g>
    <g transform="translate(175, 92)">
      <circle cx="5" cy="5" r="5" fill="#00ADD8"/>
      <text x="16" y="9" fill="#c9d1d9" font-size="12" font-family="'Segoe UI', Ubuntu, 'Helvetica Neue', sans-serif">Go 8.1%</text>
    </g>
    <g transform="translate(25, 114)">
      <circle cx="5" cy="5" r="5" fill="#fcb32c"/>
      <text x="16" y="9" fill="#c9d1d9" font-size="12" font-family="'Segoe UI', Ubuntu, 'Helvetica Neue', sans-serif">MDX 6.6%</text>
    </g>
    <g transform="translate(175, 114)">
      <circle cx="5" cy="5" r="5" fill="#ff5a03"/>
      <text x="16" y="9" fill="#c9d1d9" font-size="12" font-family="'Segoe UI', Ubuntu, 'Helvetica Neue', sans-serif">Astro 2.2%</text>
    </g>
    <g transform="translate(25, 136)">
      <circle cx="5" cy="5" r="5" fill="#663399"/>
      <text x="16" y="9" fill="#c9d1d9" font-size="12" font-family="'Segoe UI', Ubuntu, 'Helvetica Neue', sans-serif">CSS 1.0%</text>
    </g>
    <g transform="translate(175, 136)">
      <circle cx="5" cy="5" r="5" fill="#f1e05a"/>
      <text x="16" y="9" fill="#c9d1d9" font-size="12" font-family="'Segoe UI', Ubuntu, 'Helvetica Neue', sans-serif">JavaScript 0.5%</text>
    </g>
</svg>