<svg xmlns="http://www.w3.org/2000/svg" width="340" height="168" viewBox="0 0 340 168">
  <text x="25" y="28" fill="#7c3aed" font-size="16" font-weight="bold" font-family="'Segoe UI', Ubuntu, 'Helvetica Neue', sans-serif">Top Languages</text>
  <rect x="25" y="42" width="95.40999999999998" height="8" fill="#dea584" rx="0"/><rect x="120.40999999999998" y="42" width="74.53" height="8" fill="#3178c6" rx="0"/><rect x="194.94" y="42" width="59.16" height="8" fill="#A97BFF" rx="0"/><rect x="254.1" y="42" width="28.71" height="8" fill="#00ADD8" rx="0"/><rect x="282.81" y="42" width="20.01" height="8" fill="#fcb32c" rx="0"/><rect x="302.82" y="42" width="7.830000000000001" height="8" fill="#ff5a03" rx="0"/><rect x="310.65" y="42" width="2.6100000000000003" height="8" fill="#663399" rx="0"/><rect x="313.26" y="42" width="1.74" height="8" fill="#41b883" rx="0"/>
  
    <g transform="translate(25, 70)">
      <circle cx="5" cy="5" r="5" fill="#dea584"/>
      <text x="16" y="9" fill="#c9d1d9" font-size="12" font-family="'Segoe UI', Ubuntu, 'Helvetica Neue', sans-serif">Rust 32.9%</text>
    </g>
    <g transform="translate(175, 70)">
      <circle cx="5" cy="5" r="5" fill="#3178c6"/>
      <text x="16" y="9" fill="#c9d1d9" font-size="12" font-family="'Segoe UI', Ubuntu, 'Helvetica Neue', sans-serif">TypeScript 25.7%</text>
    </g>
    <g transform="translate(25, 92)">
      <circle cx="5" cy="5" r="5" fill="#A97BFF"/>
      <text x="16" y="9" fill="#c9d1d9" font-size="12" font-family="'Segoe UI', Ubuntu, 'Helvetica Neue', sans-serif">Kotlin 20.4%</text>
    </g>
    <g transform="translate(175, 92)">
      <circle cx="5" cy="5" r="5" fill="#00ADD8"/>
      <text x="16" y="9" fill="#c9d1d9" font-size="12" font-family="'Segoe UI', Ubuntu, 'Helvetica Neue', sans-serif">Go 9.9%</text>
    </g>
    <g transform="translate(25, 114)">
      <circle cx="5" cy="5" r="5" fill="#fcb32c"/>
      <text x="16" y="9" fill="#c9d1d9" font-size="12" font-family="'Segoe UI', Ubuntu, 'Helvetica Neue', sans-serif">MDX 6.9%</text>
    </g>
    <g transform="translate(175, 114)">
      <circle cx="5" cy="5" r="5" fill="#ff5a03"/>
      <text x="16" y="9" fill="#c9d1d9" font-size="12" font-family="'Segoe UI', Ubuntu, 'Helvetica Neue', sans-serif">Astro 2.7%</text>
    </g>
    <g transform="translate(25, 136)">
      <circle cx="5" cy="5" r="5" fill="#663399"/>
      <text x="16" y="9" fill="#c9d1d9" font-size="12" font-family="'Segoe UI', Ubuntu, 'Helvetica Neue', sans-serif">CSS 0.9%</text>
    </g>
    <g transform="translate(175, 136)">
      <circle cx="5" cy="5" r="5" fill="#41b883"/>
      <text x="16" y="9" fill="#c9d1d9" font-size="12" font-family="'Segoe UI', Ubuntu, 'Helvetica Neue', sans-serif">Vue 0.6%</text>
    </g>
</svg>