<svg xmlns="http://www.w3.org/2000/svg" width="340" height="168" viewBox="0 0 340 168">
  <text x="25" y="28" fill="#7c3aed" font-size="16" font-weight="bold" font-family="'Segoe UI', Ubuntu, 'Helvetica Neue', sans-serif">Top Languages</text>
  <rect x="25" y="42" width="129.63" height="8" fill="#dea584" rx="0"/><rect x="154.63" y="42" width="88.16" height="8" fill="#3178c6" rx="0"/><rect x="242.79" y="42" width="34.22" height="8" fill="#00ADD8" rx="0"/><rect x="277.01" y="42" width="21.460000000000004" height="8" fill="#fcb32c" rx="0"/><rect x="298.46999999999997" y="42" width="9.57" height="8" fill="#ff5a03" rx="0"/><rect x="308.03999999999996" y="42" width="3.1900000000000004" height="8" fill="#663399" rx="0"/><rect x="311.22999999999996" y="42" width="2.03" height="8" fill="#41b883" rx="0"/><rect x="313.25999999999993" y="42" width="2.03" height="8" fill="#f1e05a" rx="0"/>
  
    <g transform="translate(25, 70)">
      <circle cx="5" cy="5" r="5" fill="#dea584"/>
      <text x="16" y="9" fill="#c9d1d9" font-size="12" font-family="'Segoe UI', Ubuntu, 'Helvetica Neue', sans-serif">Rust 44.7%</text>
    </g>
    <g transform="translate(175, 70)">
      <circle cx="5" cy="5" r="5" fill="#3178c6"/>
      <text x="16" y="9" fill="#c9d1d9" font-size="12" font-family="'Segoe UI', Ubuntu, 'Helvetica Neue', sans-serif">TypeScript 30.4%</text>
    </g>
    <g transform="translate(25, 92)">
      <circle cx="5" cy="5" r="5" fill="#00ADD8"/>
      <text x="16" y="9" fill="#c9d1d9" font-size="12" font-family="'Segoe UI', Ubuntu, 'Helvetica Neue', sans-serif">Go 11.8%</text>
    </g>
    <g transform="translate(175, 92)">
      <circle cx="5" cy="5" r="5" fill="#fcb32c"/>
      <text x="16" y="9" fill="#c9d1d9" font-size="12" font-family="'Segoe UI', Ubuntu, 'Helvetica Neue', sans-serif">MDX 7.4%</text>
    </g>
    <g transform="translate(25, 114)">
      <circle cx="5" cy="5" r="5" fill="#ff5a03"/>
      <text x="16" y="9" fill="#c9d1d9" font-size="12" font-family="'Segoe UI', Ubuntu, 'Helvetica Neue', sans-serif">Astro 3.3%</text>
    </g>
    <g transform="translate(175, 114)">
      <circle cx="5" cy="5" r="5" fill="#663399"/>
      <text x="16" y="9" fill="#c9d1d9" font-size="12" font-family="'Segoe UI', Ubuntu, 'Helvetica Neue', sans-serif">CSS 1.1%</text>
    </g>
    <g transform="translate(25, 136)">
      <circle cx="5" cy="5" r="5" fill="#41b883"/>
      <text x="16" y="9" fill="#c9d1d9" font-size="12" font-family="'Segoe UI', Ubuntu, 'Helvetica Neue', sans-serif">Vue 0.7%</text>
    </g>
    <g transform="translate(175, 136)">
      <circle cx="5" cy="5" r="5" fill="#f1e05a"/>
      <text x="16" y="9" fill="#c9d1d9" font-size="12" font-family="'Segoe UI', Ubuntu, 'Helvetica Neue', sans-serif">JavaScript 0.7%</text>
    </g>
</svg>