<svg xmlns="http://www.w3.org/2000/svg" width="400" height="144" viewBox="0 0 400 144">
  <rect x="2" y="2" width="396" height="140" fill="none" stroke="#7c3aed" stroke-width="3"/>
  <svg x="21" y="20" width="18" height="18" viewBox="0 0 24 24" fill="none" stroke="#7c3aed" stroke-width="2" stroke-linecap="round" stroke-linejoin="round">
    <path d="M9 19c-5 1.5-5-2.5-7-3m14 6v-3.87a3.37 3.37 0 0 0-.94-2.61c3.14-.35 6.44-1.54 6.44-7A5.44 5.44 0 0 0 20 4.77 5.07 5.07 0 0 0 19.91 1S18.73.65 16 2.48a13.38 13.38 0 0 0-7 0C6.27.65 5.09 1 5.09 1A5.07 5.07 0 0 0 5 4.77a5.44 5.44 0 0 0-1.5 3.78c0 5.42 3.3 6.61 6.44 7A3.37 3.37 0 0 0 9 18.13V22"/>
  </svg>
  <text x="48" y="34" fill="#7c3aed" font-size="17" font-weight="bold" font-family="'Segoe UI', Ubuntu, 'Helvetica Neue', sans-serif">claude-hindsight</text>
  <text x="25" y="66" fill="#888888" font-size="13" font-family="'Segoe UI', Ubuntu, 'Helvetica Neue', sans-serif">Claude Hindsight is a powerful observability tool</text>
  <text x="25" y="86" fill="#888888" font-size="13" font-family="'Segoe UI', Ubuntu, 'Helvetica Neue', sans-serif">for Claude Code that transforms raw JSONL…</text>
  <circle cx="29" cy="120" r="6" fill="#dea584"/>
  <text x="42" y="124" fill="#c9d1d9" font-size="13" font-family="'Segoe UI', Ubuntu, 'Helvetica Neue', sans-serif">Rust</text>
  <text x="300" y="124" fill="#c9d1d9" font-size="13" font-family="'Segoe UI', Ubuntu, 'Helvetica Neue', sans-serif">★ 19</text>
  <text x="350" y="124" fill="#c9d1d9" font-size="13" font-family="'Segoe UI', Ubuntu, 'Helvetica Neue', sans-serif">⑂ 2</text>
</svg>